<svg xmlns="http://www.w3.org/2000/svg" width="25" height="25" viewBox="0 0 25 25" fill="none">
  <path d="M5 17.9104L4.37813 14.4281C4.29036 13.9374 4.38147 13.4315 4.63491 13.0022C4.88835 12.5729 5.28731 12.2488 5.75937 12.0885L5.9375 12.0281M5.9375 12.0281L11.8312 10.0281C12.265 9.88112 12.735 9.88112 13.1687 10.0281L19.0625 12.0281M5.9375 12.0281V8.06979C5.9375 7.51726 6.15699 6.98735 6.54769 6.59665C6.9384 6.20595 7.4683 5.98646 8.02083 5.98646H10.625M19.0625 12.0281L19.2406 12.0885C19.7127 12.2488 20.1117 12.5729 20.3651 13.0022C20.6185 13.4315 20.7096 13.9374 20.6219 14.4281L20 17.9094M19.0625 12.0281V8.06979C19.0625 7.51726 18.843 6.98735 18.4523 6.59665C18.0616 6.20595 17.5317 5.98646 16.9792 5.98646H14.375M10.625 5.98646H14.375M10.625 5.98646V5C10.625 4.50272 10.8225 4.02581 11.1742 3.67417C11.5258 3.32254 12.0027 3.125 12.5 3.125C12.9973 3.125 13.4742 3.32254 13.8258 3.67417C14.1775 4.02581 14.375 4.50272 14.375 5V5.98646M3.125 21.249C3.79896 21.9333 5.43958 22.1271 7.00521 21.474C8.08021 21.026 9.43854 21.0146 10.5375 21.4C11.8098 21.8345 13.1902 21.8345 14.4625 21.4C15.5615 21.0146 16.9198 21.025 17.9937 21.4729C19.5604 22.1271 21.2021 21.9333 21.875 21.2479" stroke="black" stroke-width="1.5" stroke-linecap="round" stroke-linejoin="round"/>
</svg>